<mxfile host="app.diagrams.net" modified="2023-12-08T09:55:03.936Z" agent="Mozilla/5.0 (Windows NT 10.0; Win64; x64) AppleWebKit/537.36 (KHTML, like Gecko) Chrome/119.0.0.0 Safari/537.36 Edg/119.0.0.0" etag="H1kvQ_9IMP-5jeOujKyp" version="22.1.7" type="device">
  <diagram name="Page-1" id="QrOuIyyw_r9oCfF8eMPY">
    <mxGraphModel dx="1564" dy="1029" grid="1" gridSize="10" guides="1" tooltips="1" connect="1" arrows="1" fold="1" page="1" pageScale="1" pageWidth="850" pageHeight="1100" math="0" shadow="0">
      <root>
        <mxCell id="0" />
        <mxCell id="1" parent="0" />
        <mxCell id="cG67AvSncxas6vGZa_xC-1" value="Book" style="rounded=0;whiteSpace=wrap;html=1;" vertex="1" parent="1">
          <mxGeometry x="80" y="315" width="120" height="60" as="geometry" />
        </mxCell>
        <mxCell id="cG67AvSncxas6vGZa_xC-2" value="" style="strokeWidth=2;html=1;shape=mxgraph.flowchart.annotation_2;align=left;labelPosition=right;pointerEvents=1;" vertex="1" parent="1">
          <mxGeometry x="200" y="125" width="50" height="440" as="geometry" />
        </mxCell>
        <mxCell id="cG67AvSncxas6vGZa_xC-3" value="Add book" style="rounded=0;whiteSpace=wrap;html=1;" vertex="1" parent="1">
          <mxGeometry x="250" y="90" width="120" height="60" as="geometry" />
        </mxCell>
        <mxCell id="cG67AvSncxas6vGZa_xC-4" value="Print book&#39;s infornation" style="rounded=0;whiteSpace=wrap;html=1;" vertex="1" parent="1">
          <mxGeometry x="250" y="350" width="120" height="60" as="geometry" />
        </mxCell>
        <mxCell id="cG67AvSncxas6vGZa_xC-5" value="Find Book" style="whiteSpace=wrap;html=1;rounded=0;" vertex="1" parent="1">
          <mxGeometry x="250" y="180" width="120" height="60" as="geometry" />
        </mxCell>
        <mxCell id="cG67AvSncxas6vGZa_xC-8" value="Delete Book" style="rounded=0;whiteSpace=wrap;html=1;" vertex="1" parent="1">
          <mxGeometry x="250" y="260" width="120" height="60" as="geometry" />
        </mxCell>
        <mxCell id="cG67AvSncxas6vGZa_xC-11" value="Reader" style="rounded=0;whiteSpace=wrap;html=1;" vertex="1" parent="1">
          <mxGeometry x="80" y="850" width="120" height="60" as="geometry" />
        </mxCell>
        <mxCell id="cG67AvSncxas6vGZa_xC-12" value="" style="strokeWidth=2;html=1;shape=mxgraph.flowchart.annotation_2;align=left;labelPosition=right;pointerEvents=1;" vertex="1" parent="1">
          <mxGeometry x="200" y="735" width="50" height="290" as="geometry" />
        </mxCell>
        <mxCell id="cG67AvSncxas6vGZa_xC-13" value="Issued book" style="rounded=0;whiteSpace=wrap;html=1;" vertex="1" parent="1">
          <mxGeometry x="250" y="440" width="120" height="60" as="geometry" />
        </mxCell>
        <mxCell id="cG67AvSncxas6vGZa_xC-14" value="Return book" style="rounded=0;whiteSpace=wrap;html=1;" vertex="1" parent="1">
          <mxGeometry x="250" y="540" width="120" height="60" as="geometry" />
        </mxCell>
        <mxCell id="cG67AvSncxas6vGZa_xC-15" value="Add reader" style="rounded=0;whiteSpace=wrap;html=1;" vertex="1" parent="1">
          <mxGeometry x="250" y="710" width="120" height="60" as="geometry" />
        </mxCell>
        <mxCell id="cG67AvSncxas6vGZa_xC-16" value="Delete reader" style="rounded=0;whiteSpace=wrap;html=1;" vertex="1" parent="1">
          <mxGeometry x="250" y="810" width="120" height="60" as="geometry" />
        </mxCell>
        <mxCell id="cG67AvSncxas6vGZa_xC-17" value="Reader status" style="rounded=0;whiteSpace=wrap;html=1;" vertex="1" parent="1">
          <mxGeometry x="250" y="910" width="120" height="60" as="geometry" />
        </mxCell>
        <mxCell id="cG67AvSncxas6vGZa_xC-18" value="Find reaader" style="rounded=0;whiteSpace=wrap;html=1;" vertex="1" parent="1">
          <mxGeometry x="250" y="1000" width="120" height="60" as="geometry" />
        </mxCell>
        <mxCell id="cG67AvSncxas6vGZa_xC-20" style="edgeStyle=orthogonalEdgeStyle;rounded=0;orthogonalLoop=1;jettySize=auto;html=1;entryX=0.5;entryY=1;entryDx=0;entryDy=0;" edge="1" parent="1" source="cG67AvSncxas6vGZa_xC-19" target="cG67AvSncxas6vGZa_xC-1">
          <mxGeometry relative="1" as="geometry" />
        </mxCell>
        <mxCell id="cG67AvSncxas6vGZa_xC-21" style="edgeStyle=orthogonalEdgeStyle;rounded=0;orthogonalLoop=1;jettySize=auto;html=1;entryX=0.5;entryY=0;entryDx=0;entryDy=0;" edge="1" parent="1" source="cG67AvSncxas6vGZa_xC-19" target="cG67AvSncxas6vGZa_xC-11">
          <mxGeometry relative="1" as="geometry" />
        </mxCell>
        <mxCell id="cG67AvSncxas6vGZa_xC-23" value="" style="edgeStyle=orthogonalEdgeStyle;rounded=0;orthogonalLoop=1;jettySize=auto;html=1;" edge="1" parent="1" source="cG67AvSncxas6vGZa_xC-19" target="cG67AvSncxas6vGZa_xC-22">
          <mxGeometry relative="1" as="geometry" />
        </mxCell>
        <mxCell id="cG67AvSncxas6vGZa_xC-19" value="Menu" style="ellipse;whiteSpace=wrap;html=1;" vertex="1" parent="1">
          <mxGeometry x="20" y="600" width="120" height="80" as="geometry" />
        </mxCell>
        <mxCell id="cG67AvSncxas6vGZa_xC-22" value="Exit" style="whiteSpace=wrap;html=1;" vertex="1" parent="1">
          <mxGeometry x="420" y="610" width="120" height="60" as="geometry" />
        </mxCell>
      </root>
    </mxGraphModel>
  </diagram>
</mxfile>
